{"title":"New Years Day (Defame me, Kill or Be Killed and Malevolence)","uid":14254224,"size":20341512,"categoryP":"audio","categoryS":"music","magnet":"?xt=urn:btih:a56e7c756907b8f4f7d73712836eba723a646b6f&amp;dn=New+Years+Day+%28Defame+me%2C+Kill+or+Be+Killed+and+Malevolence%29&amp;tr=udp%3A%2F%2Ftracker.leechers-paradise.org%3A6969&amp;tr=udp%3A%2F%2Fzer0day.ch%3A1337&amp;tr=udp%3A%2F%2Fopen.demonii.com%3A1337&amp;tr=udp%3A%2F%2Ftracker.coppersurfer.tk%3A6969&amp;tr=udp%3A%2F%2Fexodus.desync.com%3A6969","seeders":0,"leechers":5,"uploader":"Cynnik","files":3,"time":1460176334,"description":"Songs:\r\n\r\nFormat                      : MPEG Audio\r\nFile size                   : 5.76 MiB\r\nDuration                    : 3mn 18s\r\nOverall bit rate mode       : Variable\r\nOverall bit rate            : 244 Kbps\r\nAlbum                       : Malevolence\r\nAlbum/Sorted by             : Malevolence\r\nPerformer                   : New Years Day\r\nPerformer/Sorted by         : New Years Day\r\nGenre                       : Alt. Rock\r\nRecorded date               : 2015\r\n\r\nAudio\r\nFormat                      : MPEG Audio\r\nFormat version              : Version 1\r\nFormat profile              : Layer 3\r\nDuration                    : 3mn 18s\r\nBit rate mode               : Variable\r\nBit rate                    : 244 Kbps\r\nChannel(s)                  : 2 channels\r\nSampling rate               : 48.0 KHz\r\nCompression mode            : Lossy\r\nStream size                 : 5.76 MiB (100%)\r\n___________________________________________________________________________________\r\n\r\nKill or Be Killed\r\n___________________________________________________________________________________\r\n\r\nFormat                      : MPEG Audio\r\nFile size                   : 6.47 MiB\r\nDuration                    : 3mn 51s\r\nOverall bit rate mode       : Variable\r\nOverall bit rate            : 235 Kbps\r\nAlbum                       : Malevolence\r\nAlbum/Sorted by             : Malevolence\r\nPerformer                   : New Years Day\r\nPerformer/Sorted by         : New Years Day\r\nGenre                       : Alt. Rock\r\nRecorded date               : 2015\r\n\r\nAudio\r\nFormat                      : MPEG Audio\r\nFormat version              : Version 1\r\nFormat profile              : Layer 3\r\nDuration                    : 3mn 51s\r\nBit rate mode               : Variable\r\nBit rate                    : 235 Kbps\r\nChannel(s)                  : 2 channels\r\nSampling rate               : 48.0 KHz\r\nCompression mode            : Lossy\r\nStream size                 : 6.47 MiB (100%)\r\n\r\n___________________________________________________________________________________\r\n\r\nMalevolence\r\n___________________________________________________________________________________\r\n\r\nFormat                      : MPEG Audio\r\nFile size                   : 7.16 MiB\r\nDuration                    : 4mn 15s\r\nOverall bit rate mode       : Variable\r\nOverall bit rate            : 235 Kbps\r\nAlbum                       : Malevolence\r\nAlbum/Sorted by             : Malevolence\r\nPerformer                   : New Years Day\r\nPerformer/Sorted by         : New Years Day\r\nGenre                       : Alt. Rock\r\nRecorded date               : 2015\r\n\r\nAudio\r\nFormat                      : MPEG Audio\r\nFormat version              : Version 1\r\nFormat profile              : Layer 3\r\nDuration                    : 4mn 15s\r\nBit rate mode               : Variable\r\nBit rate                    : 235 Kbps\r\nChannel(s)                  : 2 channels\r\nSampling rate               : 48.0 KHz\r\nCompression mode            : Lossy\r\nStream size                 : 7.16 MiB (100%)","torrent":{"xt":"urn:btih:a56e7c756907b8f4f7d73712836eba723a646b6f","amp;dn":"New+Years+Day+%28Defame+me%2C+Kill+or+Be+Killed+and+Malevolence%29","amp;tr":["udp%3A%2F%2Ftracker.leechers-paradise.org%3A6969","udp%3A%2F%2Fzer0day.ch%3A1337","udp%3A%2F%2Fopen.demonii.com%3A1337","udp%3A%2F%2Ftracker.coppersurfer.tk%3A6969","udp%3A%2F%2Fexodus.desync.com%3A6969"],"infoHash":"a56e7c756907b8f4f7d73712836eba723a646b6f","infoHashBuffer":{"type":"Buffer","data":[165,110,124,117,105,7,184,244,247,215,55,18,131,110,186,114,58,100,107,111]},"announce":[],"urlList":[]}}